G04*
G04 #@! TF.GenerationSoftware,Altium Limited,Altium Designer,24.4.1 (13)*
G04*
G04 Layer_Color=8388736*
%FSLAX44Y44*%
%MOMM*%
G71*
G04*
G04 #@! TF.SameCoordinates,2532A9CE-C595-4F9E-AB26-32F22B0E5C71*
G04*
G04*
G04 #@! TF.FilePolarity,Negative*
G04*
G01*
G75*
%ADD15R,3.0532X4.1532*%
%ADD16O,2.1032X1.0532*%
%ADD17R,1.2032X0.9532*%
%ADD18R,1.6032X0.9532*%
%ADD19O,1.6532X1.0532*%
%ADD20R,0.9532X1.2032*%
%ADD21R,2.9032X1.2032*%
%ADD22R,1.2032X2.3532*%
%ADD23R,3.4532X2.3532*%
%ADD24C,3.7032*%
%ADD25C,1.7272*%
%ADD26R,2.2032X1.7032*%
%ADD27C,1.7032*%
G04:AMPARAMS|DCode=28|XSize=4.2032mm|YSize=1.7032mm|CornerRadius=0.4766mm|HoleSize=0mm|Usage=FLASHONLY|Rotation=0.000|XOffset=0mm|YOffset=0mm|HoleType=Round|Shape=RoundedRectangle|*
%AMROUNDEDRECTD28*
21,1,4.2032,0.7500,0,0,0.0*
21,1,3.2500,1.7032,0,0,0.0*
1,1,0.9532,1.6250,-0.3750*
1,1,0.9532,-1.6250,-0.3750*
1,1,0.9532,-1.6250,0.3750*
1,1,0.9532,1.6250,0.3750*
%
%ADD28ROUNDEDRECTD28*%
D15*
X362250Y44000D02*
D03*
X233750D02*
D03*
D16*
X236500Y245550D02*
D03*
Y232850D02*
D03*
Y220150D02*
D03*
Y207450D02*
D03*
Y194750D02*
D03*
Y182050D02*
D03*
Y169350D02*
D03*
Y156650D02*
D03*
Y143950D02*
D03*
Y131250D02*
D03*
Y118550D02*
D03*
Y105850D02*
D03*
Y93150D02*
D03*
Y80450D02*
D03*
X331500Y245550D02*
D03*
Y232850D02*
D03*
Y220150D02*
D03*
Y207450D02*
D03*
Y194750D02*
D03*
Y182050D02*
D03*
Y169350D02*
D03*
Y156650D02*
D03*
Y143950D02*
D03*
Y131250D02*
D03*
Y118550D02*
D03*
Y105850D02*
D03*
Y93150D02*
D03*
Y80450D02*
D03*
D17*
X428500Y107500D02*
D03*
Y124500D02*
D03*
X403500Y107500D02*
D03*
Y124500D02*
D03*
X363500Y80000D02*
D03*
Y97000D02*
D03*
X168500Y232500D02*
D03*
Y249500D02*
D03*
X98500Y40000D02*
D03*
Y57000D02*
D03*
X363500Y137000D02*
D03*
Y120000D02*
D03*
X99000Y92500D02*
D03*
Y109500D02*
D03*
X126000Y92500D02*
D03*
Y109500D02*
D03*
X99000Y144500D02*
D03*
Y127500D02*
D03*
D18*
X363500Y225500D02*
D03*
Y246500D02*
D03*
X156000Y90500D02*
D03*
Y111500D02*
D03*
D19*
X408750Y246600D02*
D03*
Y233900D02*
D03*
Y221200D02*
D03*
Y208500D02*
D03*
Y195800D02*
D03*
Y183100D02*
D03*
Y170400D02*
D03*
X463250Y246600D02*
D03*
Y233900D02*
D03*
Y221200D02*
D03*
Y208500D02*
D03*
Y195800D02*
D03*
Y183100D02*
D03*
Y170400D02*
D03*
D20*
X201500Y19000D02*
D03*
X184500D02*
D03*
X201500Y41000D02*
D03*
X184500D02*
D03*
X124500Y136000D02*
D03*
X141500D02*
D03*
D21*
X53750Y101610D02*
D03*
Y126610D02*
D03*
Y171610D02*
D03*
Y146610D02*
D03*
D22*
X101540Y170860D02*
D03*
X124540D02*
D03*
X147540D02*
D03*
D23*
X124540Y229360D02*
D03*
D24*
X26000Y256000D02*
D03*
Y26000D02*
D03*
X611000D02*
D03*
D25*
X483500Y218500D02*
D03*
X403500Y143500D02*
D03*
X306000Y203500D02*
D03*
X261725Y169225D02*
D03*
X278500Y191000D02*
D03*
X358500Y203500D02*
D03*
X296000Y176000D02*
D03*
X389100Y246600D02*
D03*
X351000Y158500D02*
D03*
X436000Y238500D02*
D03*
X303350Y105850D02*
D03*
X443500Y141000D02*
D03*
X303500Y143500D02*
D03*
X171000Y213500D02*
D03*
X258500Y143500D02*
D03*
X136000Y46000D02*
D03*
X301000Y246000D02*
D03*
X201000Y251000D02*
D03*
X191000Y231000D02*
D03*
X81000Y126000D02*
D03*
Y146000D02*
D03*
X156000Y131000D02*
D03*
X136000Y76000D02*
D03*
D26*
X561000Y241800D02*
D03*
Y216400D02*
D03*
Y140200D02*
D03*
Y114800D02*
D03*
Y165600D02*
D03*
Y191000D02*
D03*
X193000Y121600D02*
D03*
Y147000D02*
D03*
Y197800D02*
D03*
Y172400D02*
D03*
Y96200D02*
D03*
Y70800D02*
D03*
X611000Y241800D02*
D03*
Y216400D02*
D03*
Y140200D02*
D03*
Y114800D02*
D03*
Y165600D02*
D03*
Y191000D02*
D03*
X511000Y241800D02*
D03*
Y216400D02*
D03*
Y165600D02*
D03*
Y191000D02*
D03*
D27*
X26750Y114110D02*
D03*
Y159110D02*
D03*
D28*
Y78110D02*
D03*
Y195110D02*
D03*
M02*
