G04*
G04 #@! TF.GenerationSoftware,Altium Limited,Altium Designer,24.4.1 (13)*
G04*
G04 Layer_Physical_Order=1*
G04 Layer_Color=255*
%FSLAX44Y44*%
%MOMM*%
G71*
G04*
G04 #@! TF.SameCoordinates,2532A9CE-C595-4F9E-AB26-32F22B0E5C71*
G04*
G04*
G04 #@! TF.FilePolarity,Positive*
G04*
G01*
G75*
%ADD29R,2.8500X3.9500*%
%ADD30O,1.9000X0.8500*%
%ADD31R,1.0000X0.7500*%
%ADD32R,1.4000X0.7500*%
%ADD33O,1.4500X0.8500*%
%ADD34R,0.7500X1.0000*%
%ADD35R,2.7000X1.0000*%
%ADD36R,1.0000X2.1500*%
%ADD37R,3.2500X2.1500*%
%ADD38C,0.5000*%
%ADD39C,3.5000*%
%ADD40C,1.5240*%
%ADD41R,2.0000X1.5000*%
%ADD42C,1.5000*%
G04:AMPARAMS|DCode=43|XSize=4mm|YSize=1.5mm|CornerRadius=0.375mm|HoleSize=0mm|Usage=FLASHONLY|Rotation=0.000|XOffset=0mm|YOffset=0mm|HoleType=Round|Shape=RoundedRectangle|*
%AMROUNDEDRECTD43*
21,1,4.0000,0.7500,0,0,0.0*
21,1,3.2500,1.5000,0,0,0.0*
1,1,0.7500,1.6250,-0.3750*
1,1,0.7500,-1.6250,-0.3750*
1,1,0.7500,-1.6250,0.3750*
1,1,0.7500,1.6250,0.3750*
%
%ADD43ROUNDEDRECTD43*%
D29*
X362250Y44000D02*
D03*
X233750D02*
D03*
D30*
X236500Y245550D02*
D03*
Y232850D02*
D03*
Y220150D02*
D03*
Y207450D02*
D03*
Y194750D02*
D03*
Y182050D02*
D03*
Y169350D02*
D03*
Y156650D02*
D03*
Y143950D02*
D03*
Y131250D02*
D03*
Y118550D02*
D03*
Y105850D02*
D03*
Y93150D02*
D03*
Y80450D02*
D03*
X331500Y245550D02*
D03*
Y232850D02*
D03*
Y220150D02*
D03*
Y207450D02*
D03*
Y194750D02*
D03*
Y182050D02*
D03*
Y169350D02*
D03*
Y156650D02*
D03*
Y143950D02*
D03*
Y131250D02*
D03*
Y118550D02*
D03*
Y105850D02*
D03*
Y93150D02*
D03*
Y80450D02*
D03*
D31*
X428500Y107500D02*
D03*
Y124500D02*
D03*
X403500Y107500D02*
D03*
Y124500D02*
D03*
X363500Y80000D02*
D03*
Y97000D02*
D03*
X168500Y232500D02*
D03*
Y249500D02*
D03*
X98500Y40000D02*
D03*
Y57000D02*
D03*
X363500Y137000D02*
D03*
Y120000D02*
D03*
X99000Y92500D02*
D03*
Y109500D02*
D03*
X126000Y92500D02*
D03*
Y109500D02*
D03*
X99000Y144500D02*
D03*
Y127500D02*
D03*
D32*
X363500Y225500D02*
D03*
Y246500D02*
D03*
X156000Y90500D02*
D03*
Y111500D02*
D03*
D33*
X408750Y246600D02*
D03*
Y233900D02*
D03*
Y221200D02*
D03*
Y208500D02*
D03*
Y195800D02*
D03*
Y183100D02*
D03*
Y170400D02*
D03*
X463250Y246600D02*
D03*
Y233900D02*
D03*
Y221200D02*
D03*
Y208500D02*
D03*
Y195800D02*
D03*
Y183100D02*
D03*
Y170400D02*
D03*
D34*
X201500Y19000D02*
D03*
X184500D02*
D03*
X201500Y41000D02*
D03*
X184500D02*
D03*
X124500Y136000D02*
D03*
X141500D02*
D03*
D35*
X53750Y101610D02*
D03*
Y126610D02*
D03*
Y171610D02*
D03*
Y146610D02*
D03*
D36*
X101540Y170860D02*
D03*
X124540D02*
D03*
X147540D02*
D03*
D37*
X124540Y229360D02*
D03*
D38*
X428500Y124500D02*
Y145337D01*
X438500Y155337D01*
X408250Y125750D02*
X418500Y136000D01*
Y146000D01*
X430960Y158460D01*
X404750Y125750D02*
X408250D01*
X403500Y124500D02*
X404750Y125750D01*
X451130Y233230D02*
X462580D01*
X448700Y230800D02*
X451130Y233230D01*
X462580D02*
X463250Y233900D01*
X448700Y221200D02*
Y230800D01*
Y221200D02*
X463250D01*
X438500Y211000D02*
X448700Y221200D01*
X438500Y155337D02*
Y211000D01*
X430960Y158460D02*
Y192871D01*
Y205571D02*
Y216040D01*
X418071Y182430D02*
X421040Y179461D01*
X428031Y195800D02*
X430960Y192871D01*
X408750Y195800D02*
X428031D01*
X408750Y183100D02*
X409420Y182430D01*
X408750Y208500D02*
X428031D01*
X430960Y205571D01*
X426000Y221000D02*
X430960Y216040D01*
X421040Y161040D02*
Y179461D01*
X408750Y221200D02*
X408950Y221000D01*
X430960Y192871D02*
Y205571D01*
X409420Y182430D02*
X418071D01*
X408950Y221000D02*
X426000D01*
X448500Y183500D02*
X462850D01*
X448500Y148771D02*
Y183500D01*
Y192871D01*
X403500Y143500D02*
X421040Y161040D01*
X451429Y195800D02*
X458250D01*
X448500Y192871D02*
X451429Y195800D01*
X443500Y141000D02*
Y143771D01*
X448500Y148771D01*
X463250Y208500D02*
X466786D01*
X474826Y216541D01*
X481541D02*
X483500Y218500D01*
X474826Y216541D02*
X481541D01*
X506193Y221400D02*
X511593Y216000D01*
X495960Y226869D02*
Y253071D01*
X501429Y221400D02*
X506193D01*
X493031Y256000D02*
X495960Y253071D01*
X466920Y248217D02*
Y250270D01*
X463250Y246600D02*
X465303D01*
X366750Y246500D02*
X383790Y263540D01*
X495960Y226869D02*
X501429Y221400D01*
X472650Y256000D02*
X493031D01*
X508031Y263540D02*
X511000Y260571D01*
X465303Y246600D02*
X466920Y248217D01*
X383790Y263540D02*
X508031D01*
X466920Y250270D02*
X472650Y256000D01*
X154750Y111500D02*
X156000Y112750D01*
X123250Y136000D02*
Y141571D01*
X511000Y241800D02*
Y260571D01*
X463250Y183100D02*
X491400D01*
X496360Y178140D01*
X523088D01*
X535628Y165600D01*
X561000D01*
X462850Y183500D02*
X463250Y183100D01*
X306000Y188500D02*
X312450Y182050D01*
X306000Y188500D02*
Y201000D01*
X312450Y182050D02*
X331500D01*
X261725Y169225D02*
X262450Y169950D01*
X261000Y168500D02*
X261725Y169225D01*
X262450Y169950D02*
Y182050D01*
X236500D02*
X262450D01*
X236500Y194750D02*
X274750D01*
X278500Y191000D01*
X355729Y198500D02*
X358500Y203500D01*
X351979Y194750D02*
X355729Y198500D01*
X331500Y194750D02*
X351979D01*
X331500Y182050D02*
X363071D01*
X366000Y141020D02*
Y179121D01*
X363071Y182050D02*
X366000Y179121D01*
X296000Y176000D02*
X312650Y169350D01*
X366928Y217572D02*
Y224250D01*
X365678Y225500D02*
X366928Y224250D01*
X363500Y225500D02*
X365678D01*
X366928Y217572D02*
X376179Y208321D01*
Y124179D02*
Y208321D01*
X312650Y169350D02*
X331500D01*
X301225Y245775D02*
X360275D01*
X363500Y246500D02*
X366750D01*
X363500Y80000D02*
X532500D01*
X541000Y88500D01*
Y137271D01*
X543929Y140200D02*
X561000D01*
X541000Y137271D02*
X543929Y140200D01*
X561000Y109800D02*
X562200Y111000D01*
X561000Y83500D02*
Y109800D01*
X548710Y71210D02*
X561000Y83500D01*
X562200Y111000D02*
X563500D01*
X348332Y71210D02*
X548710D01*
X345622Y68500D02*
X348332Y71210D01*
X319889Y68500D02*
X345622D01*
X316960Y71429D02*
X319889Y68500D01*
X316960Y71429D02*
Y109698D01*
X325812Y118550D01*
X331500D01*
X392900Y170400D02*
X394100D01*
X386000Y113500D02*
X392000Y107500D01*
X388500Y176000D02*
Y224750D01*
X386000Y163500D02*
X392900Y170400D01*
X392000Y107500D02*
X403500D01*
X366750Y246500D02*
X388500Y224750D01*
X386000Y113500D02*
Y163500D01*
X388500Y176000D02*
X394100Y170400D01*
X403500Y107500D02*
X428500D01*
X363500Y97000D02*
Y120000D01*
X388500Y246000D02*
X389100Y246600D01*
X408750D01*
Y233900D02*
Y246600D01*
X350350Y156650D02*
X351000Y156000D01*
X331500Y156650D02*
X350350D01*
X394100Y170400D02*
X408750D01*
X463250D02*
X463500Y170150D01*
Y136000D02*
Y170150D01*
X428500Y124500D02*
X452000D01*
X463500Y136000D01*
X444100Y246600D02*
X458250D01*
X438500Y241000D02*
X444100Y246600D01*
X303350Y105850D02*
X303500Y106000D01*
X236500Y105850D02*
X303350D01*
X306000Y143500D02*
X306450Y143950D01*
X331500D01*
X331725Y80225D02*
X363275D01*
X363500Y80000D01*
X213140Y263660D02*
X231250Y245550D01*
X168500Y249500D02*
X169750D01*
X183910Y263660D01*
X213140D01*
X231250Y245550D02*
X236500D01*
X169750Y214750D02*
X171000Y213500D01*
X168500Y232500D02*
X169750Y231250D01*
Y214750D02*
Y231250D01*
X112000Y40000D02*
X133000Y19000D01*
X98500Y40000D02*
X112000D01*
X133000Y19000D02*
X184500D01*
X236673Y143777D02*
X261000D01*
X236500Y143950D02*
X236673Y143777D01*
X113000Y57000D02*
X124000Y46000D01*
X98500Y57000D02*
X113000D01*
X124000Y46000D02*
X136000D01*
X100428Y84572D02*
X124000Y61000D01*
X153071D01*
X301000Y246000D02*
X301225Y245775D01*
X364750Y121250D02*
X373250D01*
X376179Y124179D01*
X363500Y120000D02*
X364750Y121250D01*
X331500Y80450D02*
X331725Y80225D01*
X263500Y40167D02*
X268917Y45583D01*
X216000Y12000D02*
X260571D01*
X263500Y14929D02*
Y40167D01*
X260571Y12000D02*
X263500Y14929D01*
X268917Y45583D02*
X360667D01*
X263500Y51000D02*
X268917Y45583D01*
X263500Y51000D02*
Y75167D01*
X258217Y80450D02*
X263500Y75167D01*
X360667Y45583D02*
X362250Y44000D01*
X236500Y80450D02*
X258217D01*
X201500Y19000D02*
X209000D01*
X199500D02*
X201500D01*
X221469Y131250D02*
X236500D01*
X218540Y134179D02*
X221469Y131250D01*
X218540Y134179D02*
Y233460D01*
X201000Y251000D02*
X218540Y233460D01*
X211000Y134163D02*
Y211000D01*
Y126000D02*
Y127837D01*
X210960Y127877D02*
X211000Y127837D01*
X210960Y134123D02*
X211000Y134163D01*
X210960Y127877D02*
Y134123D01*
X191000Y231000D02*
X211000Y211000D01*
X218450Y118550D02*
X236500D01*
X211000Y126000D02*
X218450Y118550D01*
X236500Y131250D02*
X236750Y131000D01*
X205150Y105850D02*
X236500D01*
X195500Y96200D02*
X205150Y105850D01*
X193000Y96200D02*
X195500D01*
X184500Y22250D02*
Y41000D01*
X209000Y19000D02*
X216000Y12000D01*
X183500Y42000D02*
X184500Y41000D01*
X176000Y42000D02*
X183500D01*
X173000Y45000D02*
Y92000D01*
Y45000D02*
X176000Y42000D01*
X177200Y96200D02*
X193000D01*
X173000Y92000D02*
X177200Y96200D01*
X216000Y76000D02*
X222000Y70000D01*
Y55750D02*
X233750Y44000D01*
X222000Y55750D02*
Y70000D01*
X216000Y76000D02*
Y89000D01*
X220150Y93150D01*
X236500D01*
X201500Y41000D02*
X230750D01*
X233750Y44000D01*
X127469Y197200D02*
X193000D01*
X101000Y108750D02*
Y109500D01*
Y127500D01*
X99000Y109500D02*
X101000D01*
X84500D02*
X99000D01*
X124540Y194271D02*
X127469Y197200D01*
X99178Y92500D02*
X100428Y91250D01*
X99000Y92500D02*
X99178D01*
X100428Y84572D02*
Y91250D01*
X125322Y93178D02*
X126000Y92500D01*
X102250Y108250D02*
X117322Y93178D01*
X125322D01*
X126000Y86000D02*
Y92500D01*
X101000Y108750D02*
X101500Y108250D01*
X102250D01*
X124540Y165110D02*
X134111Y155539D01*
X134461D02*
X141500Y148500D01*
Y136000D02*
Y148500D01*
X124540Y165110D02*
Y170860D01*
X134111Y155539D02*
X134461D01*
X120321Y144500D02*
X123250Y141571D01*
X101000Y144500D02*
X120321D01*
X127429Y121000D02*
X143250D01*
X124500Y123929D02*
Y136000D01*
Y123929D02*
X127429Y121000D01*
X53750Y126610D02*
X80390D01*
X81000Y126000D01*
X53750Y146610D02*
X54360Y146000D01*
X81000D01*
X156000Y112750D02*
Y131000D01*
X152750Y111500D02*
X154750D01*
X150040Y161960D02*
Y168360D01*
X147540Y170860D02*
X150040Y168360D01*
Y161960D02*
X171000Y141000D01*
Y106000D02*
Y141000D01*
X156000Y63929D02*
Y90500D01*
X153071Y61000D02*
X156000Y63929D01*
X126000Y86000D02*
X136000Y76000D01*
X53750Y171610D02*
X100790D01*
X76610Y101610D02*
X84500Y109500D01*
X124540Y170860D02*
Y194271D01*
X166000Y101000D02*
X171000Y106000D01*
X147000Y101000D02*
X166000D01*
X126000Y109500D02*
X138500D01*
X147000Y101000D01*
X100790Y171610D02*
X101540Y170860D01*
X101270Y170590D02*
X101540Y170860D01*
X101000Y144500D02*
X101270Y144770D01*
Y170590D01*
X143250Y121000D02*
X152750Y111500D01*
X53750Y101610D02*
X76610D01*
D39*
X26000Y256000D02*
D03*
Y26000D02*
D03*
X611000D02*
D03*
D40*
X483500Y218500D02*
D03*
X403500Y143500D02*
D03*
X306000Y203500D02*
D03*
X261725Y169225D02*
D03*
X278500Y191000D02*
D03*
X358500Y203500D02*
D03*
X296000Y176000D02*
D03*
X389100Y246600D02*
D03*
X351000Y158500D02*
D03*
X436000Y238500D02*
D03*
X303350Y105850D02*
D03*
X443500Y141000D02*
D03*
X303500Y143500D02*
D03*
X171000Y213500D02*
D03*
X258500Y143500D02*
D03*
X136000Y46000D02*
D03*
X301000Y246000D02*
D03*
X201000Y251000D02*
D03*
X191000Y231000D02*
D03*
X81000Y126000D02*
D03*
Y146000D02*
D03*
X156000Y131000D02*
D03*
X136000Y76000D02*
D03*
D41*
X561000Y241800D02*
D03*
Y216400D02*
D03*
Y140200D02*
D03*
Y114800D02*
D03*
Y165600D02*
D03*
Y191000D02*
D03*
X193000Y121600D02*
D03*
Y147000D02*
D03*
Y197800D02*
D03*
Y172400D02*
D03*
Y96200D02*
D03*
Y70800D02*
D03*
X611000Y241800D02*
D03*
Y216400D02*
D03*
Y140200D02*
D03*
Y114800D02*
D03*
Y165600D02*
D03*
Y191000D02*
D03*
X511000Y241800D02*
D03*
Y216400D02*
D03*
Y165600D02*
D03*
Y191000D02*
D03*
D42*
X26750Y114110D02*
D03*
Y159110D02*
D03*
D43*
Y78110D02*
D03*
Y195110D02*
D03*
M02*
