G04*
G04 #@! TF.GenerationSoftware,Altium Limited,Altium Designer,24.4.1 (13)*
G04*
G04 Layer_Color=16711935*
%FSLAX44Y44*%
%MOMM*%
G71*
G04*
G04 #@! TF.SameCoordinates,2532A9CE-C595-4F9E-AB26-32F22B0E5C71*
G04*
G04*
G04 #@! TF.FilePolarity,Negative*
G04*
G01*
G75*
%ADD24C,3.7032*%
%ADD25C,1.7272*%
%ADD26R,2.2032X1.7032*%
%ADD27C,1.7032*%
G04:AMPARAMS|DCode=28|XSize=4.2032mm|YSize=1.7032mm|CornerRadius=0.4766mm|HoleSize=0mm|Usage=FLASHONLY|Rotation=0.000|XOffset=0mm|YOffset=0mm|HoleType=Round|Shape=RoundedRectangle|*
%AMROUNDEDRECTD28*
21,1,4.2032,0.7500,0,0,0.0*
21,1,3.2500,1.7032,0,0,0.0*
1,1,0.9532,1.6250,-0.3750*
1,1,0.9532,-1.6250,-0.3750*
1,1,0.9532,-1.6250,0.3750*
1,1,0.9532,1.6250,0.3750*
%
%ADD28ROUNDEDRECTD28*%
D24*
X26000Y256000D02*
D03*
Y26000D02*
D03*
X611000D02*
D03*
D25*
X483500Y218500D02*
D03*
X403500Y143500D02*
D03*
X306000Y203500D02*
D03*
X261725Y169225D02*
D03*
X278500Y191000D02*
D03*
X358500Y203500D02*
D03*
X296000Y176000D02*
D03*
X389100Y246600D02*
D03*
X351000Y158500D02*
D03*
X436000Y238500D02*
D03*
X303350Y105850D02*
D03*
X443500Y141000D02*
D03*
X303500Y143500D02*
D03*
X171000Y213500D02*
D03*
X258500Y143500D02*
D03*
X136000Y46000D02*
D03*
X301000Y246000D02*
D03*
X201000Y251000D02*
D03*
X191000Y231000D02*
D03*
X81000Y126000D02*
D03*
Y146000D02*
D03*
X156000Y131000D02*
D03*
X136000Y76000D02*
D03*
D26*
X561000Y241800D02*
D03*
Y216400D02*
D03*
Y140200D02*
D03*
Y114800D02*
D03*
Y165600D02*
D03*
Y191000D02*
D03*
X193000Y121600D02*
D03*
Y147000D02*
D03*
Y197800D02*
D03*
Y172400D02*
D03*
Y96200D02*
D03*
Y70800D02*
D03*
X611000Y241800D02*
D03*
Y216400D02*
D03*
Y140200D02*
D03*
Y114800D02*
D03*
Y165600D02*
D03*
Y191000D02*
D03*
X511000Y241800D02*
D03*
Y216400D02*
D03*
Y165600D02*
D03*
Y191000D02*
D03*
D27*
X26750Y114110D02*
D03*
Y159110D02*
D03*
D28*
Y78110D02*
D03*
Y195110D02*
D03*
M02*
