G04*
G04 #@! TF.GenerationSoftware,Altium Limited,Altium Designer,24.4.1 (13)*
G04*
G04 Layer_Physical_Order=2*
G04 Layer_Color=16711680*
%FSLAX44Y44*%
%MOMM*%
G71*
G04*
G04 #@! TF.SameCoordinates,2532A9CE-C595-4F9E-AB26-32F22B0E5C71*
G04*
G04*
G04 #@! TF.FilePolarity,Positive*
G04*
G01*
G75*
%ADD38C,0.5000*%
%ADD39C,3.5000*%
%ADD40C,1.5240*%
%ADD41R,2.0000X1.5000*%
%ADD42C,1.5000*%
G04:AMPARAMS|DCode=43|XSize=4mm|YSize=1.5mm|CornerRadius=0.375mm|HoleSize=0mm|Usage=FLASHONLY|Rotation=0.000|XOffset=0mm|YOffset=0mm|HoleType=Round|Shape=RoundedRectangle|*
%AMROUNDEDRECTD43*
21,1,4.0000,0.7500,0,0,0.0*
21,1,3.2500,1.5000,0,0,0.0*
1,1,0.7500,1.6250,-0.3750*
1,1,0.7500,-1.6250,-0.3750*
1,1,0.7500,-1.6250,0.3750*
1,1,0.7500,1.6250,0.3750*
%
%ADD43ROUNDEDRECTD43*%
D38*
X608500Y241800D02*
X611000D01*
X591800Y258500D02*
X608500Y241800D01*
X503072Y258500D02*
X591800D01*
X483500Y218500D02*
Y238928D01*
X503072Y258500D01*
X468500Y206469D02*
Y263500D01*
X465200Y266800D02*
X468500Y263500D01*
X460240Y204066D02*
Y256331D01*
Y204066D02*
X473306Y191000D01*
X468500Y206469D02*
X471429Y203540D01*
X523088D01*
X473306Y191000D02*
X511000D01*
X457311Y259260D02*
X460240Y256331D01*
X371760Y259260D02*
X457311D01*
X451000Y178500D02*
X463500Y166000D01*
X448071Y251160D02*
X451000Y248231D01*
Y178500D02*
Y248231D01*
X421160Y251160D02*
X448071D01*
X556000Y196000D02*
X561000Y191000D01*
X530628Y196000D02*
X556000D01*
X523088Y203540D02*
X530628Y196000D01*
X176000Y96000D02*
X193000D01*
X511000Y216000D02*
X561000D01*
X625571Y153060D02*
X628500Y155989D01*
Y201400D01*
X613500Y216400D02*
X628500Y201400D01*
X598488Y153060D02*
X625571D01*
X524312Y127660D02*
X573088D01*
X598488Y153060D01*
X498312Y153660D02*
X524312Y127660D01*
X611000Y216400D02*
X613500D01*
X432588Y153660D02*
X498312D01*
X427427Y148500D02*
X432588Y153660D01*
X403500Y143500D02*
X427427Y148500D01*
X443500Y141000D02*
X445644Y138966D01*
X440905Y128897D02*
X444509Y135777D01*
X320108Y126892D02*
X438901D01*
X303500Y143500D02*
X318643Y128357D01*
X444509Y135777D02*
Y137770D01*
X438901Y126892D02*
X440905Y128897D01*
X318643Y128357D02*
X320108Y126892D01*
X333660Y145840D02*
X370840D01*
X323500Y156000D02*
X333660Y145840D01*
X323500Y156000D02*
Y186000D01*
X306000Y203500D02*
X323500Y186000D01*
X370840Y145840D02*
X388500Y163500D01*
Y218500D01*
X401000Y161000D02*
Y203500D01*
X378300Y138300D02*
X401000Y161000D01*
X328700Y138300D02*
X378300D01*
X308500Y158500D02*
X328700Y138300D01*
X291429Y158500D02*
X308500D01*
X388500Y218500D02*
X421160Y251160D01*
X401000Y203500D02*
X436000Y238500D01*
X376000Y183500D02*
Y233500D01*
X351000Y158500D02*
X376000Y183500D01*
Y233500D02*
X389100Y246600D01*
X463500Y166000D02*
X510600D01*
X511000Y165600D01*
X341800Y266800D02*
X465200D01*
X291160Y196567D02*
X296000Y188500D01*
X291160Y196567D02*
Y216160D01*
X296000Y176000D02*
Y188500D01*
X291160Y216160D02*
X341800Y266800D01*
X581000Y46000D02*
X628500Y93500D01*
X613500Y140200D02*
X628500Y125200D01*
Y93500D02*
Y125200D01*
X611000Y140200D02*
X613500D01*
X321663Y56000D02*
X568500D01*
X611000Y98500D01*
Y114800D01*
X278700Y98963D02*
X321663Y56000D01*
X321000Y46000D02*
X581000D01*
X278700Y98963D02*
Y160400D01*
X271000Y96000D02*
X321000Y46000D01*
X278500Y160600D02*
Y191000D01*
Y160600D02*
X278700Y160400D01*
X271160Y96160D02*
Y157277D01*
X261725Y166712D02*
X271160Y157277D01*
X261725Y166712D02*
Y169225D01*
X271000Y96000D02*
X271160Y96160D01*
X258470Y115970D02*
X258518Y116018D01*
X258470Y111643D02*
Y115970D01*
X192828Y46000D02*
X258470Y111643D01*
X258518Y116018D02*
Y143482D01*
X258500Y143500D02*
X258518Y143482D01*
X136000Y46000D02*
X192828D01*
X358500Y203500D02*
Y246000D01*
X371760Y259260D01*
X511000Y241400D02*
X561000D01*
X278500Y246000D02*
X301000D01*
X193000Y172400D02*
X195671Y175071D01*
X207571D01*
X278500Y246000D01*
X288500Y120700D02*
Y155571D01*
X291429Y158500D01*
X288500Y120700D02*
X303350Y105850D01*
X586000Y171000D02*
Y188500D01*
X588500Y196663D02*
X594163Y191000D01*
X578500Y196000D02*
X586000Y188500D01*
X588500Y196663D02*
Y236000D01*
X594163Y191000D02*
X611000D01*
X578500Y196000D02*
Y213471D01*
X591400Y165600D02*
X611000D01*
X586000Y171000D02*
X591400Y165600D01*
X575571Y216400D02*
X578500Y213471D01*
X561000Y216400D02*
X575571D01*
X583500Y241000D02*
X588500Y236000D01*
X561800Y241000D02*
X583500D01*
X561000Y241800D02*
X561800Y241000D01*
X171000Y163500D02*
Y211000D01*
X174960Y159540D02*
X214531D01*
X171000Y163500D02*
X174960Y159540D01*
X214531D02*
X218500Y155571D01*
Y93800D02*
Y155571D01*
X193000Y70800D02*
X195500D01*
X218500Y93800D01*
X81000Y221000D02*
X111000Y251000D01*
X201000D01*
X199265Y249458D02*
X201000Y251000D01*
X197216Y249458D02*
X199265Y249458D01*
X81000Y146000D02*
Y221000D01*
X111000Y231000D02*
X191000D01*
X96000Y216000D02*
X111000Y231000D01*
X140400Y146400D02*
X193000D01*
X136000Y76000D02*
Y142000D01*
X140400Y146400D01*
X96000Y131000D02*
Y216000D01*
X92959Y127959D02*
X96000Y131000D01*
X81000Y126000D02*
X82959Y127959D01*
X92959D01*
X171000Y101000D02*
X176000Y96000D01*
X171000Y101000D02*
Y116000D01*
X156000Y131000D02*
X171000Y116000D01*
D39*
X26000Y256000D02*
D03*
Y26000D02*
D03*
X611000D02*
D03*
D40*
X483500Y218500D02*
D03*
X403500Y143500D02*
D03*
X306000Y203500D02*
D03*
X261725Y169225D02*
D03*
X278500Y191000D02*
D03*
X358500Y203500D02*
D03*
X296000Y176000D02*
D03*
X389100Y246600D02*
D03*
X351000Y158500D02*
D03*
X436000Y238500D02*
D03*
X303350Y105850D02*
D03*
X443500Y141000D02*
D03*
X303500Y143500D02*
D03*
X171000Y213500D02*
D03*
X258500Y143500D02*
D03*
X136000Y46000D02*
D03*
X301000Y246000D02*
D03*
X201000Y251000D02*
D03*
X191000Y231000D02*
D03*
X81000Y126000D02*
D03*
Y146000D02*
D03*
X156000Y131000D02*
D03*
X136000Y76000D02*
D03*
D41*
X561000Y241800D02*
D03*
Y216400D02*
D03*
Y140200D02*
D03*
Y114800D02*
D03*
Y165600D02*
D03*
Y191000D02*
D03*
X193000Y121600D02*
D03*
Y147000D02*
D03*
Y197800D02*
D03*
Y172400D02*
D03*
Y96200D02*
D03*
Y70800D02*
D03*
X611000Y241800D02*
D03*
Y216400D02*
D03*
Y140200D02*
D03*
Y114800D02*
D03*
Y165600D02*
D03*
Y191000D02*
D03*
X511000Y241800D02*
D03*
Y216400D02*
D03*
Y165600D02*
D03*
Y191000D02*
D03*
D42*
X26750Y114110D02*
D03*
Y159110D02*
D03*
D43*
Y78110D02*
D03*
Y195110D02*
D03*
M02*
