M48
;Layer_Color=9474304
;FILE_FORMAT=4:4
METRIC,LZ
;TYPE=PLATED
T01F00S00C0.7620
T03F00S00C1.0200
T04F00S00C3.0000
;TYPE=NON_PLATED
T05F00S00C1.5000
%
T01
X00136Y00046
Y00076
X00081Y00126
X00156Y00131
X0030335Y0010585
X004435Y00141
X004035Y001435
X00351Y001585
X003585Y002035
X00306
X00296Y00176
X002785Y00191
X00261725Y00169225
X002585Y001435
X003035
X00301Y00246
X003891Y002466
X00436Y002385
X004835Y002185
X00191Y00231
X00201Y00251
X00171Y002135
X00081Y00146
T03
X00193Y000708
Y000962
Y001216
X00561Y001148
Y001402
X00611
Y001148
Y001656
Y00191
Y002164
Y002418
X00561
Y002164
Y00191
Y001656
X00511
Y00191
Y002164
Y002418
X00193Y001978
Y001724
Y00147
T04
X00026Y00026
X00611
X00026Y00256
T05
X0002675Y0011411
Y0015911
M30
