G04*
G04 #@! TF.GenerationSoftware,Altium Limited,Altium Designer,24.4.1 (13)*
G04*
G04 Layer_Color=65535*
%FSLAX44Y44*%
%MOMM*%
G71*
G04*
G04 #@! TF.SameCoordinates,2532A9CE-C595-4F9E-AB26-32F22B0E5C71*
G04*
G04*
G04 #@! TF.FilePolarity,Positive*
G04*
G01*
G75*
%ADD10C,0.2500*%
%ADD11C,0.6000*%
%ADD12C,0.2540*%
%ADD13C,0.1000*%
%ADD14C,0.2000*%
D10*
X237750Y255300D02*
G03*
X237750Y255300I-1250J0D01*
G01*
X410000Y256350D02*
G03*
X410000Y256350I-1250J0D01*
G01*
X92290Y170860D02*
G03*
X92290Y170860I-1250J0D01*
G01*
D11*
X263000Y242000D02*
G03*
X263000Y242000I-3000J0D01*
G01*
X433000Y242500D02*
G03*
X433000Y242500I-3000J0D01*
G01*
D12*
X562270Y102100D02*
G03*
X562270Y102100I-1270J0D01*
G01*
X194270Y210500D02*
G03*
X194270Y210500I-1270J0D01*
G01*
X612270Y102100D02*
G03*
X612270Y102100I-1270J0D01*
G01*
X512270Y152900D02*
G03*
X512270Y152900I-1270J0D01*
G01*
X178000Y58000D02*
X208000D01*
X178000Y108000D02*
X208000D01*
Y58000D02*
Y108000D01*
X178000Y58000D02*
Y108000D01*
Y134000D02*
X208000D01*
X178000Y210000D02*
X208000D01*
Y134000D02*
Y210000D01*
X178000Y134000D02*
Y210000D01*
X294335Y20998D02*
Y19332D01*
X297668Y16000D01*
X301000Y19332D01*
Y20998D01*
X297668Y16000D02*
Y11002D01*
X304332D02*
X307665D01*
X305998D01*
Y20998D01*
X304332Y19332D01*
X277335Y271998D02*
Y262002D01*
X282334D01*
X284000Y263668D01*
Y270332D01*
X282334Y271998D01*
X277335D01*
X287332Y262002D02*
X290665D01*
X288998D01*
Y271998D01*
X287332Y270332D01*
X625540Y193538D02*
Y188873D01*
X627873Y186540D01*
X630205Y188873D01*
Y193538D01*
X632538Y190039D02*
X637203D01*
X634870Y192372D02*
Y187706D01*
X577540Y246538D02*
Y241873D01*
X579873Y239540D01*
X582205Y241873D01*
Y246538D01*
X584538Y243039D02*
X589203D01*
X586870Y245371D02*
Y240706D01*
X527540Y245538D02*
Y240873D01*
X529873Y238540D01*
X532205Y240873D01*
Y245538D01*
X534538Y242039D02*
X539203D01*
X536870Y244371D02*
Y239706D01*
X505463Y120540D02*
Y123872D01*
Y122206D01*
X515460D01*
Y120540D01*
Y123872D01*
Y135535D02*
Y128871D01*
X508796Y135535D01*
X507129D01*
X505463Y133869D01*
Y130537D01*
X507129Y128871D01*
Y145532D02*
X505463Y143866D01*
Y140534D01*
X507129Y138867D01*
X513794D01*
X515460Y140534D01*
Y143866D01*
X513794Y145532D01*
X558129Y78204D02*
X556463Y76538D01*
Y73206D01*
X558129Y71540D01*
X559795D01*
X561462Y73206D01*
Y76538D01*
X563128Y78204D01*
X564794D01*
X566460Y76538D01*
Y73206D01*
X564794Y71540D01*
X566460Y81537D02*
X556463D01*
Y86535D01*
X558129Y88201D01*
X561462D01*
X563128Y86535D01*
Y81537D01*
X556463Y91533D02*
Y94866D01*
Y93200D01*
X566460D01*
Y91533D01*
Y94866D01*
X606463Y57540D02*
X614794D01*
X616460Y59206D01*
Y62538D01*
X614794Y64205D01*
X606463D01*
X616460Y67537D02*
X609795D01*
X606463Y70869D01*
X609795Y74201D01*
X616460D01*
X611462D01*
Y67537D01*
X616460Y77533D02*
X606463D01*
Y82532D01*
X608129Y84198D01*
X611462D01*
X613128Y82532D01*
Y77533D01*
Y80866D02*
X616460Y84198D01*
X606463Y87530D02*
Y94195D01*
Y90863D01*
X616460D01*
X552530Y268019D02*
X559194Y258022D01*
Y268019D02*
X552530Y258022D01*
X567525D02*
Y268019D01*
X562527Y263020D01*
X569191D01*
X502492Y268019D02*
X509156Y258022D01*
Y268019D02*
X502492Y258022D01*
X519153Y268019D02*
X512489D01*
Y263020D01*
X515821Y264687D01*
X517487D01*
X519153Y263020D01*
Y259688D01*
X517487Y258022D01*
X514155D01*
X512489Y259688D01*
X602568Y268019D02*
X609232Y258022D01*
Y268019D02*
X602568Y258022D01*
X612565Y266353D02*
X614231Y268019D01*
X617563D01*
X619229Y266353D01*
Y264687D01*
X617563Y263020D01*
X615897D01*
X617563D01*
X619229Y261354D01*
Y259688D01*
X617563Y258022D01*
X614231D01*
X612565Y259688D01*
X210002Y188669D02*
X219998Y195334D01*
X210002D02*
X219998Y188669D01*
Y205331D02*
Y198666D01*
X213334Y205331D01*
X211668D01*
X210002Y203664D01*
Y200332D01*
X211668Y198666D01*
X24335Y220998D02*
X31000Y211002D01*
Y220998D02*
X24335Y211002D01*
X34332D02*
X37664D01*
X35998D01*
Y220998D01*
X34332Y219332D01*
X350171Y268498D02*
Y261834D01*
X353503Y258502D01*
X356836Y261834D01*
Y268498D01*
X360168D02*
Y258502D01*
X365166D01*
X366832Y260168D01*
Y266832D01*
X365166Y268498D01*
X360168D01*
X376829Y258502D02*
X370164D01*
X376829Y265166D01*
Y266832D01*
X375163Y268498D01*
X371831D01*
X370164Y266832D01*
X151002Y59337D02*
X157666D01*
X160998Y62669D01*
X157666Y66002D01*
X151002D01*
Y69334D02*
X160998D01*
Y74332D01*
X159332Y75998D01*
X152668D01*
X151002Y74332D01*
Y69334D01*
X160998Y79331D02*
Y82663D01*
Y80997D01*
X151002D01*
X152668Y79331D01*
X442669Y108502D02*
Y118498D01*
X447668D01*
X449334Y116832D01*
Y113500D01*
X447668Y111834D01*
X442669D01*
X446002D02*
X449334Y108502D01*
X452666Y118498D02*
X459331D01*
Y116832D01*
X452666Y110168D01*
Y108502D01*
X375169D02*
Y118498D01*
X380168D01*
X381834Y116832D01*
Y113500D01*
X380168Y111834D01*
X375169D01*
X378502D02*
X381834Y108502D01*
X391831Y118498D02*
X388498Y116832D01*
X385166Y113500D01*
Y110168D01*
X386832Y108502D01*
X390164D01*
X391831Y110168D01*
Y111834D01*
X390164Y113500D01*
X385166D01*
X140169Y251002D02*
Y260998D01*
X145168D01*
X146834Y259332D01*
Y256000D01*
X145168Y254334D01*
X140169D01*
X143502D02*
X146834Y251002D01*
X156831Y260998D02*
X150166D01*
Y256000D01*
X153498Y257666D01*
X155164D01*
X156831Y256000D01*
Y252668D01*
X155164Y251002D01*
X151832D01*
X150166Y252668D01*
X380169Y126002D02*
Y135998D01*
X385168D01*
X386834Y134332D01*
Y131000D01*
X385168Y129334D01*
X380169D01*
X383502D02*
X386834Y126002D01*
X395164D02*
Y135998D01*
X390166Y131000D01*
X396831D01*
X377669Y86002D02*
Y95998D01*
X382668D01*
X384334Y94332D01*
Y91000D01*
X382668Y89334D01*
X377669D01*
X381002D02*
X384334Y86002D01*
X387666Y94332D02*
X389332Y95998D01*
X392664D01*
X394331Y94332D01*
Y92666D01*
X392664Y91000D01*
X390998D01*
X392664D01*
X394331Y89334D01*
Y87668D01*
X392664Y86002D01*
X389332D01*
X387666Y87668D01*
X116998Y93669D02*
X107002D01*
Y98668D01*
X108668Y100334D01*
X112000D01*
X113666Y98668D01*
Y93669D01*
Y97002D02*
X116998Y100334D01*
Y110331D02*
Y103666D01*
X110334Y110331D01*
X108668D01*
X107002Y108665D01*
Y105332D01*
X108668Y103666D01*
X87998Y94335D02*
X78002D01*
Y99334D01*
X79668Y101000D01*
X83000D01*
X84666Y99334D01*
Y94335D01*
Y97668D02*
X87998Y101000D01*
Y104332D02*
Y107664D01*
Y105998D01*
X78002D01*
X79668Y104332D01*
X427669Y265998D02*
Y256002D01*
X432668D01*
X434334Y257668D01*
Y264332D01*
X432668Y265998D01*
X427669D01*
X437666Y264332D02*
X439332Y265998D01*
X442664D01*
X444331Y264332D01*
Y262666D01*
X442664Y261000D01*
X440998D01*
X442664D01*
X444331Y259334D01*
Y257668D01*
X442664Y256002D01*
X439332D01*
X437666Y257668D01*
X77669Y235998D02*
Y226002D01*
X82668D01*
X84334Y227668D01*
Y234332D01*
X82668Y235998D01*
X77669D01*
X94331Y226002D02*
X87666D01*
X94331Y232666D01*
Y234332D01*
X92664Y235998D01*
X89332D01*
X87666Y234332D01*
X131334Y153332D02*
X129668Y154998D01*
X126335D01*
X124669Y153332D01*
Y146668D01*
X126335Y145002D01*
X129668D01*
X131334Y146668D01*
X141331Y154998D02*
X134666D01*
Y150000D01*
X137998Y151666D01*
X139664D01*
X141331Y150000D01*
Y146668D01*
X139664Y145002D01*
X136332D01*
X134666Y146668D01*
X76834Y51832D02*
X75168Y53498D01*
X71835D01*
X70169Y51832D01*
Y45168D01*
X71835Y43502D01*
X75168D01*
X76834Y45168D01*
X85164Y43502D02*
Y53498D01*
X80166Y48500D01*
X86831D01*
X108668Y135334D02*
X107002Y133668D01*
Y130336D01*
X108668Y128669D01*
X115332D01*
X116998Y130336D01*
Y133668D01*
X115332Y135334D01*
X108668Y138666D02*
X107002Y140332D01*
Y143665D01*
X108668Y145331D01*
X110334D01*
X112000Y143665D01*
Y141998D01*
Y143665D01*
X113666Y145331D01*
X115332D01*
X116998Y143665D01*
Y140332D01*
X115332Y138666D01*
X160334Y23332D02*
X158668Y24998D01*
X155336D01*
X153669Y23332D01*
Y16668D01*
X155336Y15002D01*
X158668D01*
X160334Y16668D01*
X170331Y15002D02*
X163666D01*
X170331Y21666D01*
Y23332D01*
X168664Y24998D01*
X165332D01*
X163666Y23332D01*
X162000Y44332D02*
X160334Y45998D01*
X157002D01*
X155336Y44332D01*
Y37668D01*
X157002Y36002D01*
X160334D01*
X162000Y37668D01*
X165332Y36002D02*
X168664D01*
X166998D01*
Y45998D01*
X165332Y44332D01*
D13*
X373121Y252371D02*
G03*
X373121Y252371I-500J0D01*
G01*
X147379Y84629D02*
G03*
X147379Y84629I-500J0D01*
G01*
D14*
X252000Y25250D02*
X344000D01*
X252000Y62750D02*
X344000D01*
X250000Y74000D02*
Y252000D01*
X318000Y74000D02*
Y252000D01*
X250000D02*
X318000D01*
X250000Y74000D02*
X318000D01*
X424500Y115000D02*
Y117000D01*
X432500Y115000D02*
Y117000D01*
X399500Y115000D02*
Y117000D01*
X407500Y115000D02*
Y117000D01*
X357500Y233000D02*
Y239000D01*
X369500Y233000D02*
Y239000D01*
X420000Y164500D02*
Y252500D01*
X452000Y164500D02*
Y252500D01*
X420000D02*
X452000D01*
X420000Y164500D02*
X452000D01*
X359500Y87500D02*
Y89500D01*
X367500Y87500D02*
Y89500D01*
X164500Y240000D02*
Y242000D01*
X172500Y240000D02*
Y242000D01*
X94500Y47500D02*
Y49500D01*
X102500Y47500D02*
Y49500D01*
X367500Y127500D02*
Y129500D01*
X359500Y127500D02*
Y129500D01*
X192000Y15000D02*
X194000D01*
X192000Y23000D02*
X194000D01*
X192000Y37000D02*
X194000D01*
X192000Y45000D02*
X194000D01*
X91040Y184610D02*
X158040D01*
X91040Y215610D02*
X158040D01*
X91040Y184610D02*
Y215610D01*
X158040Y184610D02*
Y215610D01*
X150000Y98000D02*
Y104000D01*
X162000Y98000D02*
Y104000D01*
X132000Y140000D02*
X134000D01*
X132000Y132000D02*
X134000D01*
X95000Y100000D02*
Y102000D01*
X103000Y100000D02*
Y102000D01*
X122000Y100000D02*
Y102000D01*
X130000Y100000D02*
Y102000D01*
X103000Y135000D02*
Y137000D01*
X95000Y135000D02*
Y137000D01*
X395000Y27329D02*
X401665Y17332D01*
Y27329D02*
X395000Y17332D01*
X411661D02*
X404997D01*
X411661Y23997D01*
Y25663D01*
X409995Y27329D01*
X406663D01*
X404997Y25663D01*
X424990Y14000D02*
Y23997D01*
X429989D01*
X431655Y22331D01*
Y18998D01*
X429989Y17332D01*
X424990D01*
X434987D02*
X438319D01*
X436653D01*
Y23997D01*
X434987D01*
X443318Y17332D02*
Y23997D01*
X448316D01*
X449982Y22331D01*
Y17332D01*
X463311D02*
Y27329D01*
X469976Y17332D01*
Y27329D01*
X478307D02*
X474974D01*
X473308Y25663D01*
Y18998D01*
X474974Y17332D01*
X478307D01*
X479973Y18998D01*
Y25663D01*
X478307Y27329D01*
X499966D02*
X493302D01*
Y22331D01*
X496634Y23997D01*
X498300D01*
X499966Y22331D01*
Y18998D01*
X498300Y17332D01*
X494968D01*
X493302Y18998D01*
X503298Y22331D02*
X509963D01*
X519960Y27329D02*
X516628Y25663D01*
X513295Y22331D01*
Y18998D01*
X514961Y17332D01*
X518294D01*
X519960Y18998D01*
Y20665D01*
X518294Y22331D01*
X513295D01*
X533289Y27329D02*
X539953D01*
X536621D01*
Y17332D01*
X543286Y27329D02*
X549950D01*
X546618D01*
Y17332D01*
X553282Y27329D02*
Y17332D01*
X559947D01*
X395000Y45329D02*
X401665Y35332D01*
Y45329D02*
X395000Y35332D01*
X411661D02*
X404997D01*
X411661Y41997D01*
Y43663D01*
X409995Y45329D01*
X406663D01*
X404997Y43663D01*
X424990Y32000D02*
Y41997D01*
X429989D01*
X431655Y40331D01*
Y36998D01*
X429989Y35332D01*
X424990D01*
X434987D02*
X438319D01*
X436653D01*
Y41997D01*
X434987D01*
X443318Y35332D02*
Y41997D01*
X448316D01*
X449982Y40331D01*
Y35332D01*
X469976Y45329D02*
X463311D01*
Y40331D01*
X466644Y41997D01*
X468310D01*
X469976Y40331D01*
Y36998D01*
X468310Y35332D01*
X464977D01*
X463311Y36998D01*
X473308Y40331D02*
X479973D01*
X489969Y45329D02*
X486637Y43663D01*
X483305Y40331D01*
Y36998D01*
X484971Y35332D01*
X488303D01*
X489969Y36998D01*
Y38665D01*
X488303Y40331D01*
X483305D01*
X503298Y35332D02*
Y45329D01*
X508297D01*
X509963Y43663D01*
Y40331D01*
X508297Y38665D01*
X503298D01*
X513295Y41997D02*
Y35332D01*
Y38665D01*
X514961Y40331D01*
X516628Y41997D01*
X518294D01*
X524958Y35332D02*
X528290D01*
X529957Y36998D01*
Y40331D01*
X528290Y41997D01*
X524958D01*
X523292Y40331D01*
Y36998D01*
X524958Y35332D01*
X536621Y32000D02*
X538287D01*
X539953Y33666D01*
Y41997D01*
X534955D01*
X533289Y40331D01*
Y36998D01*
X534955Y35332D01*
X539953D01*
X543286Y41997D02*
Y35332D01*
Y38665D01*
X544952Y40331D01*
X546618Y41997D01*
X548284D01*
X554949D02*
X558281D01*
X559947Y40331D01*
Y35332D01*
X554949D01*
X553282Y36998D01*
X554949Y38665D01*
X559947D01*
X563279Y35332D02*
Y41997D01*
X564945D01*
X566611Y40331D01*
Y35332D01*
Y40331D01*
X568278Y41997D01*
X569944Y40331D01*
Y35332D01*
X395000Y61329D02*
X401665Y51332D01*
Y61329D02*
X395000Y51332D01*
X411661D02*
X404997D01*
X411661Y57997D01*
Y59663D01*
X409995Y61329D01*
X406663D01*
X404997Y59663D01*
X424990Y48000D02*
Y57997D01*
X429989D01*
X431655Y56331D01*
Y52998D01*
X429989Y51332D01*
X424990D01*
X434987D02*
X438319D01*
X436653D01*
Y57997D01*
X434987D01*
X443318Y51332D02*
Y57997D01*
X448316D01*
X449982Y56331D01*
Y51332D01*
X469976D02*
X463311D01*
X469976Y57997D01*
Y59663D01*
X468310Y61329D01*
X464977D01*
X463311Y59663D01*
X473308Y56331D02*
X479973D01*
X483305Y59663D02*
X484971Y61329D01*
X488303D01*
X489969Y59663D01*
Y57997D01*
X488303Y56331D01*
X486637D01*
X488303D01*
X489969Y54665D01*
Y52998D01*
X488303Y51332D01*
X484971D01*
X483305Y52998D01*
X503298Y54665D02*
X509963D01*
X503298Y57997D02*
X509963D01*
X519960Y61329D02*
X513295D01*
Y56331D01*
X516628Y57997D01*
X518294D01*
X519960Y56331D01*
Y52998D01*
X518294Y51332D01*
X514961D01*
X513295Y52998D01*
X523292Y61329D02*
Y54665D01*
X526624Y51332D01*
X529957Y54665D01*
Y61329D01*
X395000Y77329D02*
X401665Y67332D01*
Y77329D02*
X395000Y67332D01*
X411661D02*
X404997D01*
X411661Y73997D01*
Y75663D01*
X409995Y77329D01*
X406663D01*
X404997Y75663D01*
X424990Y64000D02*
Y73997D01*
X429989D01*
X431655Y72331D01*
Y68998D01*
X429989Y67332D01*
X424990D01*
X434987D02*
X438319D01*
X436653D01*
Y73997D01*
X434987D01*
X443318Y67332D02*
Y73997D01*
X448316D01*
X449982Y72331D01*
Y67332D01*
X463311D02*
X466644D01*
X464977D01*
Y77329D01*
X463311Y75663D01*
X471642Y72331D02*
X478307D01*
X488303Y67332D02*
X481639D01*
X488303Y73997D01*
Y75663D01*
X486637Y77329D01*
X483305D01*
X481639Y75663D01*
X501632Y70665D02*
X508297D01*
X501632Y73997D02*
X508297D01*
X511629Y75663D02*
X513295Y77329D01*
X516628D01*
X518294Y75663D01*
Y73997D01*
X516628Y72331D01*
X514961D01*
X516628D01*
X518294Y70665D01*
Y68998D01*
X516628Y67332D01*
X513295D01*
X511629Y68998D01*
X521626Y67332D02*
Y68998D01*
X523292D01*
Y67332D01*
X521626D01*
X529957Y75663D02*
X531623Y77329D01*
X534955D01*
X536621Y75663D01*
Y73997D01*
X534955Y72331D01*
X533289D01*
X534955D01*
X536621Y70665D01*
Y68998D01*
X534955Y67332D01*
X531623D01*
X529957Y68998D01*
X539953Y77329D02*
Y70665D01*
X543285Y67332D01*
X546618Y70665D01*
Y77329D01*
X629002Y105000D02*
Y109665D01*
Y107333D01*
X636000D01*
X629002Y111998D02*
X636000Y116663D01*
X629002D02*
X636000Y111998D01*
X629002Y118996D02*
X636000D01*
Y122494D01*
X634834Y123661D01*
X630168D01*
X629002Y122494D01*
Y118996D01*
X636000Y130000D02*
X629002D01*
Y133499D01*
X630168Y134665D01*
X632501D01*
X633667Y133499D01*
Y130000D01*
Y132333D02*
X636000Y134665D01*
X629002Y136998D02*
X636000Y141663D01*
X629002D02*
X636000Y136998D01*
X629002Y143996D02*
X636000D01*
Y147494D01*
X634834Y148661D01*
X630168D01*
X629002Y147494D01*
Y143996D01*
X636000Y235000D02*
X629002D01*
Y238499D01*
X630168Y239665D01*
X632501D01*
X633667Y238499D01*
Y235000D01*
Y237333D02*
X636000Y239665D01*
X629002Y246663D02*
Y241998D01*
X636000D01*
Y246663D01*
X632501Y241998D02*
Y244330D01*
X630168Y253661D02*
X629002Y252494D01*
Y250162D01*
X630168Y248995D01*
X631335D01*
X632501Y250162D01*
Y252494D01*
X633667Y253661D01*
X634834D01*
X636000Y252494D01*
Y250162D01*
X634834Y248995D01*
X629002Y260658D02*
Y255993D01*
X636000D01*
Y260658D01*
X632501Y255993D02*
Y258326D01*
X629002Y262991D02*
Y267656D01*
Y265324D01*
X636000D01*
X629002Y202000D02*
X636000D01*
Y205499D01*
X634834Y206665D01*
X633667D01*
X632501Y205499D01*
Y202000D01*
Y205499D01*
X631335Y206665D01*
X630168D01*
X629002Y205499D01*
Y202000D01*
Y212497D02*
Y210164D01*
X630168Y208998D01*
X634834D01*
X636000Y210164D01*
Y212497D01*
X634834Y213663D01*
X630168D01*
X629002Y212497D01*
Y219494D02*
Y217162D01*
X630168Y215996D01*
X634834D01*
X636000Y217162D01*
Y219494D01*
X634834Y220661D01*
X630168D01*
X629002Y219494D01*
Y222993D02*
Y227658D01*
Y225326D01*
X636000D01*
X580168Y108665D02*
X579002Y107499D01*
Y105166D01*
X580168Y104000D01*
X584834D01*
X586000Y105166D01*
Y107499D01*
X584834Y108665D01*
X579002Y110998D02*
X586000D01*
Y115663D01*
X580168Y122661D02*
X579002Y121494D01*
Y119162D01*
X580168Y117996D01*
X581335D01*
X582501Y119162D01*
Y121494D01*
X583667Y122661D01*
X584834D01*
X586000Y121494D01*
Y119162D01*
X584834Y117996D01*
X580168Y138665D02*
X579002Y137499D01*
Y135166D01*
X580168Y134000D01*
X584834D01*
X586000Y135166D01*
Y137499D01*
X584834Y138665D01*
X580168Y145663D02*
X579002Y144497D01*
Y142164D01*
X580168Y140998D01*
X581335D01*
X582501Y142164D01*
Y144497D01*
X583667Y145663D01*
X584834D01*
X586000Y144497D01*
Y142164D01*
X584834Y140998D01*
X586000Y153000D02*
X579002D01*
X581335Y155333D01*
X579002Y157665D01*
X586000D01*
X579002Y163497D02*
Y161164D01*
X580168Y159998D01*
X584834D01*
X586000Y161164D01*
Y163497D01*
X584834Y164663D01*
X580168D01*
X579002Y163497D01*
X580168Y171661D02*
X579002Y170494D01*
Y168162D01*
X580168Y166996D01*
X581335D01*
X582501Y168162D01*
Y170494D01*
X583667Y171661D01*
X584834D01*
X586000Y170494D01*
Y168162D01*
X584834Y166996D01*
X579002Y173993D02*
Y176326D01*
Y175159D01*
X586000D01*
Y173993D01*
Y176326D01*
X586000Y180000D02*
X579002D01*
X581335Y182333D01*
X579002Y184665D01*
X586000D01*
X579002Y186998D02*
Y189330D01*
Y188164D01*
X586000D01*
Y186998D01*
Y189330D01*
X580168Y197494D02*
X579002Y196328D01*
Y193995D01*
X580168Y192829D01*
X581335D01*
X582501Y193995D01*
Y196328D01*
X583667Y197494D01*
X584834D01*
X586000Y196328D01*
Y193995D01*
X584834Y192829D01*
X579002Y203326D02*
Y200993D01*
X580168Y199827D01*
X584834D01*
X586000Y200993D01*
Y203326D01*
X584834Y204492D01*
X580168D01*
X579002Y203326D01*
X528168Y160665D02*
X527002Y159499D01*
Y157166D01*
X528168Y156000D01*
X529335D01*
X530501Y157166D01*
Y159499D01*
X531667Y160665D01*
X532834D01*
X534000Y159499D01*
Y157166D01*
X532834Y156000D01*
X527002Y162998D02*
X534000D01*
Y166497D01*
X532834Y167663D01*
X528168D01*
X527002Y166497D01*
Y162998D01*
X534000Y169995D02*
X529335D01*
X527002Y172328D01*
X529335Y174661D01*
X534000D01*
X530501D01*
Y169995D01*
X528168Y188665D02*
X527002Y187499D01*
Y185166D01*
X528168Y184000D01*
X529335D01*
X530501Y185166D01*
Y187499D01*
X531667Y188665D01*
X532834D01*
X534000Y187499D01*
Y185166D01*
X532834Y184000D01*
X528168Y195663D02*
X527002Y194497D01*
Y192164D01*
X528168Y190998D01*
X532834D01*
X534000Y192164D01*
Y194497D01*
X532834Y195663D01*
X527002Y197995D02*
X534000D01*
Y202661D01*
X528168Y211665D02*
X527002Y210499D01*
Y208166D01*
X528168Y207000D01*
X532834D01*
X534000Y208166D01*
Y210499D01*
X532834Y211665D01*
X530501D01*
Y209333D01*
X534000Y213998D02*
X527002D01*
X534000Y218663D01*
X527002D01*
Y220996D02*
X534000D01*
Y224494D01*
X532834Y225661D01*
X528168D01*
X527002Y224494D01*
Y220996D01*
X580168Y212665D02*
X579002Y211499D01*
Y209166D01*
X580168Y208000D01*
X584834D01*
X586000Y209166D01*
Y211499D01*
X584834Y212665D01*
X582501D01*
Y210333D01*
X586000Y214998D02*
X579002D01*
X586000Y219663D01*
X579002D01*
Y221996D02*
X586000D01*
Y225494D01*
X584834Y226661D01*
X580168D01*
X579002Y225494D01*
Y221996D01*
X630168Y159665D02*
X629002Y158499D01*
Y156166D01*
X630168Y155000D01*
X634834D01*
X636000Y156166D01*
Y158499D01*
X634834Y159665D01*
X632501D01*
Y157333D01*
X636000Y161998D02*
X629002D01*
X636000Y166663D01*
X629002D01*
Y168995D02*
X636000D01*
Y172494D01*
X634834Y173661D01*
X630168D01*
X629002Y172494D01*
Y168995D01*
M02*
